<svg width="40" height="34" viewBox="0 0 40 34" fill="none" xmlns="http://www.w3.org/2000/svg">
<path d="M19.3871 23.2403C16.0021 23.2403 13.871 21.1032 13.871 17.7089C13.871 14.3145 17.2279 10.9482 20.6129 10.9482C23.9979 10.9482 27.3548 13.4066 27.9677 17.0942C28.5806 19.5527 27.3548 26.9281 20.6129 28.1573M17.8866 13.6748C17.8866 13.6748 18.7742 12.792 20.6129 12.792C22.4516 12.792 26.129 14.6358 25.5161 19.5527C24.2903 25.6987 18.7742 25.6987 18.7742 25.6987C14.822 26.0882 10.1936 22.2631 10.1936 17.7089C10.1936 11.599 15.1329 6.64593 21.2258 6.64593C25.154 6.64593 29.1121 8.70462 31.4288 11.8048C31.5429 11.9574 31.653 12.1125 31.7589 12.2701M7.74196 9.71896C4.06451 18.3236 9.43107 27.5757 17.5484 28.1572C17.8855 28.1813 18.2131 28.1922 18.5315 28.1906M39 14.0212C39 14.0212 35.9354 2.95849 23.6774 1.11446C18.0058 0.261246 12.8795 2.16865 9.66031 6.39876M1 23.8551C1 23.8551 9.29297 37.2672 23.6774 32.4594C29.1935 30.6157 33.4839 23.8187 33.4839 17.7089C33.4839 17.0807 33.4187 16.4648 33.2952 15.8652M8.96774 1.11461C8.85657 1.22586 8.35483 0.944673 8.35483 1.11461C8.35483 1.28454 8.82989 1.08425 8.94105 1.19551C9.05193 1.30648 8.7987 1.72921 8.96774 1.72921C9.13677 1.72921 8.85686 1.22558 8.96774 1.11461ZM8.96774 1.11461C9.07862 1.00363 8.7987 0.5 8.96774 0.5C9.13677 0.5 8.85686 1.00363 8.96774 1.11461ZM8.96774 1.11461C9.0789 1.22586 9.58064 0.944673 9.58064 1.11461C9.58064 1.28454 9.0789 1.00335 8.96774 1.11461ZM28.5806 6.03146C28.4695 6.14272 27.9677 5.86153 27.9677 6.03146C27.9677 6.2014 28.4428 6.00111 28.5539 6.11236C28.6648 6.22334 28.4116 6.64607 28.5806 6.64607C28.7497 6.64607 28.4697 6.14244 28.5806 6.03146ZM28.5806 6.03146C28.6915 5.92049 28.4116 5.41686 28.5806 5.41686C28.7497 5.41686 28.4697 5.92049 28.5806 6.03146ZM28.5806 6.03146C28.6918 6.14272 29.1935 5.86153 29.1935 6.03146C29.1935 6.2014 28.6918 5.92021 28.5806 6.03146ZM6.51612 24.4697C6.40496 24.5809 5.90322 24.2997 5.90322 24.4697C5.90322 24.6396 6.37828 24.4393 6.48944 24.5506C6.60032 24.6615 6.34709 25.0843 6.51612 25.0843C6.68516 25.0843 6.40524 24.5806 6.51612 24.4697ZM6.51612 24.4697C6.627 24.3587 6.34709 23.8551 6.51612 23.8551C6.68516 23.8551 6.40524 24.3587 6.51612 24.4697ZM6.51612 24.4697C6.62729 24.5809 7.12903 24.2997 7.12903 24.4697C7.12903 24.6396 6.62729 24.3584 6.51612 24.4697ZM31.0322 31.845C30.9211 31.9562 30.4193 31.675 30.4193 31.845C30.4193 32.0149 30.8944 31.8146 31.0055 31.9259C31.1164 32.0368 30.8632 32.4596 31.0322 32.4596C31.2013 32.4596 30.9214 31.9559 31.0322 31.845ZM31.0322 31.845C31.1431 31.734 30.8632 31.2304 31.0322 31.2304C31.2013 31.2304 30.9214 31.734 31.0322 31.845ZM31.0322 31.845C31.1434 31.9562 31.6451 31.675 31.6451 31.845C31.6451 32.0149 31.1434 31.7337 31.0322 31.845ZM23.0645 18.0163C23.0645 19.5438 21.8297 20.782 20.3064 20.782C18.7832 20.782 17.5484 19.5438 17.5484 18.0163C17.5484 16.4888 18.7832 15.2506 20.3064 15.2506C21.8297 15.2506 23.0645 16.4888 23.0645 18.0163ZM35.3226 14.0214C35.3226 15.3791 34.2249 16.4798 32.8709 16.4798C31.517 16.4798 30.4193 15.3791 30.4193 14.0214C30.4193 12.6636 31.517 11.5629 32.8709 11.5629C34.2249 11.5629 35.3226 12.6636 35.3226 14.0214ZM10.8064 7.87529C10.8064 9.23304 9.70882 10.3337 8.35483 10.3337C7.00085 10.3337 5.90322 9.23304 5.90322 7.87529C5.90322 6.51753 7.00085 5.41686 8.35483 5.41686C9.70882 5.41686 10.8064 6.51753 10.8064 7.87529ZM20.6129 28.7719C20.6129 29.4508 20.0641 30.0011 19.3871 30.0011C18.7101 30.0011 18.1613 29.4508 18.1613 28.7719C18.1613 28.093 18.7101 27.5427 19.3871 27.5427C20.0641 27.5427 20.6129 28.093 20.6129 28.7719Z" stroke="white" stroke-width="0.903226"/>
</svg>
